<svg xmlns="http://www.w3.org/2000/svg" width="10" height="10" viewBox="0 0 10 10">
  <path fill="#333" d="M9.422 8.36L8.36 9.42c-.14.14-.337.22-.532.22s-.39-.08-.53-.22L5 7.125 2.703 9.422c-.14.14-.336.22-.53.22s-.392-.08-.532-.22L.58 8.36c-.14-.14-.22-.337-.22-.532s.08-.39.22-.53L2.875 5 .578 2.703c-.14-.14-.22-.336-.22-.53s.08-.392.22-.532L1.64.58c.14-.142.336-.22.53-.22s.392.078.532.22L5 2.874 7.297.578c.14-.14.336-.22.53-.22s.392.08.532.22L9.42 1.64c.142.14.22.336.22.53s-.078.392-.218.533L7.125 5l2.297 2.297c.14.14.22.336.22.53s-.08.392-.22.532z"/>
</svg>
