<svg xmlns="http://www.w3.org/2000/svg" width="20" height="20" viewBox="0 0 20 20"><path fill="none" d="M19.434 17.014c0 1.327-1.094 2.42-2.42 2.42H2.986c-1.327 0-2.42-1.093-2.42-2.42V2.986c0-1.327 1.093-2.42 2.42-2.42h14.027c1.326 0 2.42 1.093 2.42 2.42v14.028zM17.297 8.55H15.64c.158.504.244 1.057.244 1.61 0 3.145-2.63 5.687-5.872 5.687-3.23 0-5.86-2.542-5.86-5.687 0-.553.087-1.105.247-1.61H2.666v7.96c0 .417.332.75.75.75h13.13c.418 0 .75-.333.75-.75V8.55zm-7.285-2.26c-2.088 0-3.783 1.647-3.783 3.674 0 2.026 1.694 3.672 3.782 3.672 2.1 0 3.795-1.646 3.795-3.672 0-2.027-1.694-3.673-3.795-3.673zm7.285-2.775c0-.467-.38-.848-.848-.848h-2.14c-.466 0-.847.38-.847.848V5.54c0 .468.38.85.848.85h2.14c.466 0 .847-.382.847-.85V3.516z"/></svg>